<svg width="53" height="53" viewBox="0 0 53 53" fill="none" xmlns="http://www.w3.org/2000/svg">
<path fill-rule="evenodd" clip-rule="evenodd" d="M32.0428 13.0741C32.0428 14.5369 31.3967 15.9997 30.4848 17.0552C29.5157 18.2218 27.8438 19.0921 26.5138 19.0923C26.3618 19.0923 26.2097 19.0736 26.1148 19.0551C26.0958 18.9811 26.0578 18.7588 26.0578 18.5366C26.0578 17.0552 26.8368 15.5924 27.6728 14.6665C28.7368 13.463 30.5038 12.5556 31.9858 12.5C32.0238 12.6667 32.0428 12.8704 32.0428 13.0741ZM37.2696 22.2886C37.3065 22.265 37.3319 22.2488 37.3437 22.2399C35.3677 19.481 32.3656 19.4067 31.5295 19.4066C30.2521 19.4066 29.1086 19.8483 28.1473 20.2197C27.4502 20.489 26.8488 20.7213 26.3617 20.7213C25.8242 20.7213 25.2088 20.4789 24.522 20.2084C23.655 19.8669 22.6742 19.4806 21.5928 19.4806C17.945 19.4806 14.24 22.4249 14.24 27.98C14.24 31.4426 15.6079 35.0904 17.2989 37.4421C18.7618 39.4419 20.0348 41.0714 21.8588 41.0714C22.7238 41.0714 23.3581 40.8091 24.025 40.5332C24.7644 40.2273 25.544 39.9048 26.7228 39.9048C27.913 39.9048 28.6246 40.2076 29.3109 40.4996C29.9502 40.7716 30.5676 41.0343 31.5297 41.0343C33.5246 41.0343 34.8357 39.2753 36.0896 37.5161C37.4956 35.5164 38.0847 33.5535 38.1036 33.461C37.9896 33.4241 34.1707 31.9241 34.1707 27.6838C34.1707 24.2708 36.7721 22.6068 37.2696 22.2886Z" fill="black"/>
</svg>
