<svg width="25" height="24" viewBox="0 0 25 24" fill="none" xmlns="http://www.w3.org/2000/svg">
<path d="M8.40137 17.4561H15.8936C16.5999 17.4561 17.14 17.2715 17.5137 16.9023C17.8874 16.5378 18.0742 16.0046 18.0742 15.3027V8.9248H6.2207V15.3027C6.2207 16.0091 6.40755 16.5446 6.78125 16.9092C7.15495 17.2738 7.69499 17.4561 8.40137 17.4561ZM9.94629 11.5293C9.78223 11.5293 9.64779 11.4769 9.54297 11.3721C9.44271 11.2673 9.39258 11.1305 9.39258 10.9619V10.75C9.39258 10.5814 9.44271 10.4469 9.54297 10.3467C9.64779 10.2419 9.78223 10.1895 9.94629 10.1895H14.3555C14.5195 10.1895 14.654 10.2419 14.7588 10.3467C14.8636 10.4469 14.916 10.5814 14.916 10.75V10.9619C14.916 11.1305 14.8636 11.2673 14.7588 11.3721C14.654 11.4769 14.5195 11.5293 14.3555 11.5293H9.94629ZM6.4873 7.92676H17.8145C18.2246 7.92676 18.5322 7.81283 18.7373 7.58496C18.9469 7.3571 19.0518 7.04036 19.0518 6.63477V5.98535C19.0518 5.57975 18.9469 5.26302 18.7373 5.03516C18.5322 4.80729 18.2246 4.69336 17.8145 4.69336H6.4873C6.09538 4.69336 5.79004 4.80729 5.57129 5.03516C5.35254 5.26302 5.24316 5.57975 5.24316 5.98535V6.63477C5.24316 7.04036 5.3457 7.3571 5.55078 7.58496C5.76042 7.81283 6.07259 7.92676 6.4873 7.92676Z" fill="#7F7F7F"/>
</svg>
