<svg width="16" height="17" viewBox="0 0 16 17" fill="none" xmlns="http://www.w3.org/2000/svg">
<path d="M7.73926 1.69336C7.62988 1.69336 7.52507 1.71615 7.4248 1.76172C7.3291 1.80729 7.22656 1.87565 7.11719 1.9668L2.50293 5.69238C2.32975 5.83822 2.24316 6.0319 2.24316 6.27344C2.24316 6.42839 2.27962 6.5651 2.35254 6.68359C2.42546 6.80208 2.52116 6.89779 2.63965 6.9707C2.75814 7.03906 2.8903 7.07324 3.03613 7.07324C3.13639 7.07324 3.23438 7.05501 3.33008 7.01855C3.42578 6.97754 3.52148 6.91829 3.61719 6.84082L7.73926 3.51172L11.8613 6.84082C11.957 6.91829 12.0527 6.97754 12.1484 7.01855C12.2441 7.05501 12.3398 7.07324 12.4355 7.07324C12.5859 7.07324 12.7204 7.03906 12.8389 6.9707C12.9574 6.89779 13.0531 6.80208 13.126 6.68359C13.1989 6.5651 13.2354 6.42839 13.2354 6.27344C13.2354 6.0319 13.1488 5.83822 12.9756 5.69238L8.36133 1.95996C8.25195 1.87337 8.14714 1.80729 8.04688 1.76172C7.95117 1.71615 7.84863 1.69336 7.73926 1.69336ZM7.73926 14.3125C7.84863 14.3125 7.95117 14.2874 8.04688 14.2373C8.14714 14.1917 8.25195 14.1279 8.36133 14.0459L12.9756 10.3135C13.1488 10.1631 13.2354 9.9694 13.2354 9.73242C13.2354 9.57747 13.1989 9.44076 13.126 9.32227C13.0531 9.19922 12.9574 9.10352 12.8389 9.03516C12.7204 8.96224 12.5859 8.92578 12.4355 8.92578C12.3398 8.92578 12.2441 8.94629 12.1484 8.9873C12.0527 9.02376 11.957 9.08301 11.8613 9.16504L7.73926 12.4941L3.61719 9.16504C3.52148 9.08301 3.42578 9.02376 3.33008 8.9873C3.23438 8.94629 3.13639 8.92578 3.03613 8.92578C2.8903 8.92578 2.75814 8.96224 2.63965 9.03516C2.52116 9.10352 2.42546 9.19922 2.35254 9.32227C2.27962 9.44076 2.24316 9.57747 2.24316 9.73242C2.24316 9.9694 2.32975 10.1631 2.50293 10.3135L7.11719 14.0391C7.22656 14.1257 7.3291 14.1917 7.4248 14.2373C7.52507 14.2874 7.62988 14.3125 7.73926 14.3125Z" fill="#7F7F7F"/>
</svg>
