<svg width="20" height="16" viewBox="0 0 20 16" fill="none" xmlns="http://www.w3.org/2000/svg">
<path d="M5.83594 15.1641H14.1328C14.9401 15.1641 15.5286 14.9531 15.8984 14.5312C16.2682 14.1094 16.5156 13.5 16.6406 12.7031L17.7422 5.40625H2.22656L3.33594 12.7031C3.45573 13.5052 3.70052 14.1146 4.07031 14.5312C4.44531 14.9531 5.03385 15.1641 5.83594 15.1641ZM1.86719 4.27344H18.1016C18.5495 4.27344 18.8906 4.14844 19.125 3.89844C19.3646 3.64323 19.4844 3.28906 19.4844 2.83594V2.01562C19.4844 1.5625 19.3646 1.21094 19.125 0.960938C18.8906 0.705729 18.5495 0.578125 18.1016 0.578125H1.86719C1.4401 0.578125 1.10417 0.705729 0.859375 0.960938C0.614583 1.21094 0.492188 1.5625 0.492188 2.01562V2.83594C0.492188 3.28906 0.609375 3.64323 0.84375 3.89844C1.07812 4.14844 1.41927 4.27344 1.86719 4.27344ZM7.73438 13.0078C7.54688 13.0078 7.38281 12.9375 7.24219 12.7969C7.10677 12.6562 7.03906 12.4922 7.03906 12.3047C7.03906 12.1224 7.11198 11.9609 7.25781 11.8203L9.00781 10.0469L7.25781 8.28906C7.11198 8.14323 7.03906 7.97917 7.03906 7.79688C7.03906 7.60938 7.10938 7.45052 7.25 7.32031C7.39062 7.1849 7.55208 7.11719 7.73438 7.11719C7.83333 7.11719 7.91927 7.13542 7.99219 7.17188C8.07031 7.20833 8.14583 7.25781 8.21875 7.32031L9.99219 9.08594L11.7656 7.3125C11.9219 7.17188 12.0833 7.10156 12.25 7.10156C12.4375 7.10156 12.6016 7.17188 12.7422 7.3125C12.8828 7.44792 12.9531 7.60938 12.9531 7.79688C12.9531 7.89583 12.9323 7.98177 12.8906 8.05469C12.8542 8.1276 12.8021 8.20312 12.7344 8.28125L10.9688 10.0469L12.7266 11.8125C12.7891 11.8802 12.8411 11.9531 12.8828 12.0312C12.9245 12.1094 12.9453 12.2005 12.9453 12.3047C12.9453 12.4922 12.875 12.6562 12.7344 12.7969C12.5938 12.9375 12.4323 13.0078 12.25 13.0078C12.151 13.0078 12.0599 12.987 11.9766 12.9453C11.8932 12.9036 11.8177 12.8516 11.75 12.7891L9.99219 11.0234L8.22656 12.7891C8.08594 12.9349 7.92188 13.0078 7.73438 13.0078Z" fill="#7F7F7F"/>
</svg>
