<svg width="25" height="24" viewBox="0 0 25 24" fill="none" xmlns="http://www.w3.org/2000/svg">
<path d="M9.05273 17.9209H15.5264C15.9912 17.9209 16.3535 17.7979 16.6133 17.5518C16.8776 17.3102 17.0212 16.9593 17.0439 16.499L17.4746 6.61426H18.4248C18.5934 6.61426 18.737 6.55501 18.8555 6.43652C18.974 6.31803 19.0332 6.17448 19.0332 6.00586C19.0332 5.83724 18.974 5.69596 18.8555 5.58203C18.737 5.4681 18.5934 5.41113 18.4248 5.41113H6.1543C5.98568 5.41113 5.84212 5.47038 5.72363 5.58887C5.60514 5.7028 5.5459 5.8418 5.5459 6.00586C5.5459 6.17448 5.60514 6.31803 5.72363 6.43652C5.84212 6.55501 5.98568 6.61426 6.1543 6.61426H7.11133L7.54199 16.499C7.56478 16.9593 7.70605 17.3102 7.96582 17.5518C8.22559 17.7979 8.58789 17.9209 9.05273 17.9209ZM10.0986 15.8291C9.96647 15.8291 9.85482 15.7904 9.76367 15.7129C9.67708 15.6309 9.63379 15.5215 9.63379 15.3848L9.42188 8.11133C9.42188 7.97461 9.46289 7.86523 9.54492 7.7832C9.63151 7.70117 9.74772 7.66016 9.89355 7.66016C10.0257 7.66016 10.1351 7.70117 10.2217 7.7832C10.3128 7.86523 10.3607 7.97233 10.3652 8.10449L10.5703 15.3779C10.5749 15.5146 10.5339 15.624 10.4473 15.7061C10.3607 15.7881 10.2445 15.8291 10.0986 15.8291ZM12.293 15.8291C12.1471 15.8291 12.0286 15.7881 11.9375 15.7061C11.8509 15.624 11.8076 15.5169 11.8076 15.3848V8.10449C11.8076 7.97233 11.8509 7.86523 11.9375 7.7832C12.0286 7.70117 12.1471 7.66016 12.293 7.66016C12.4342 7.66016 12.5482 7.70117 12.6348 7.7832C12.7259 7.86523 12.7715 7.97233 12.7715 8.10449V15.3848C12.7715 15.5169 12.7259 15.624 12.6348 15.7061C12.5482 15.7881 12.4342 15.8291 12.293 15.8291ZM14.4805 15.8291C14.3346 15.8291 14.2184 15.7881 14.1318 15.7061C14.0452 15.624 14.0042 15.5146 14.0088 15.3779L14.2139 8.10449C14.2184 7.97233 14.264 7.86523 14.3506 7.7832C14.4417 7.70117 14.5534 7.66016 14.6855 7.66016C14.8314 7.66016 14.9453 7.70117 15.0273 7.7832C15.1139 7.86523 15.1572 7.97461 15.1572 8.11133L14.9453 15.3848C14.9453 15.5215 14.8997 15.6309 14.8086 15.7129C14.722 15.7904 14.6126 15.8291 14.4805 15.8291ZM9.11426 5.65039H10.5225V4.44727C10.5225 4.29232 10.5703 4.16927 10.666 4.07812C10.7663 3.98242 10.903 3.93457 11.0762 3.93457H13.4961C13.6693 3.93457 13.8037 3.98242 13.8994 4.07812C13.9997 4.16927 14.0498 4.29232 14.0498 4.44727V5.65039H15.458V4.38574C15.458 3.84342 15.2917 3.4196 14.959 3.11426C14.6263 2.80436 14.166 2.64941 13.5781 2.64941H10.9873C10.3994 2.64941 9.93913 2.80436 9.60645 3.11426C9.27832 3.4196 9.11426 3.84342 9.11426 4.38574V5.65039Z" fill="#7F7F7F"/>
</svg>
