<svg width="25" height="24" viewBox="0 0 25 24" fill="none" xmlns="http://www.w3.org/2000/svg">
<path d="M8.46484 18.4678H15.7451C16.4788 18.4678 17.0326 18.2764 17.4062 17.8936C17.7799 17.5153 17.9668 16.9593 17.9668 16.2256V10.1074H12.8535C12.0059 10.1074 11.582 9.68359 11.582 8.83594V3.66797H8.46484C7.73112 3.66797 7.17741 3.85938 6.80371 4.24219C6.43001 4.62044 6.24316 5.17643 6.24316 5.91016V16.2256C6.24316 16.9639 6.43001 17.5221 6.80371 17.9004C7.17741 18.2786 7.73112 18.4678 8.46484 18.4678ZM12.9766 9.10938H17.8916C17.8734 8.95443 17.8096 8.79948 17.7002 8.64453C17.5954 8.48958 17.4541 8.32096 17.2764 8.13867L13.5439 4.35156C13.3753 4.17839 13.2113 4.03711 13.0518 3.92773C12.8968 3.81836 12.7419 3.75456 12.5869 3.73633V8.71973C12.5869 8.97949 12.7168 9.10938 12.9766 9.10938Z" fill="#7F7F7F"/>
</svg>
