<svg width="25" height="24" viewBox="0 0 25 24" fill="none" xmlns="http://www.w3.org/2000/svg">
<path d="M4.24316 15.1455C4.24316 15.8747 4.43229 16.4261 4.81055 16.7998C5.1888 17.1781 5.74707 17.3672 6.48535 17.3672H17.8398C18.4915 17.3672 18.9997 17.1781 19.3643 16.7998C19.7288 16.4261 19.9111 15.8747 19.9111 15.1455V9.7041H4.24316V15.1455ZM4.24316 8.71973H19.9111V8.11816C19.9111 7.389 19.7197 6.83529 19.3369 6.45703C18.9587 6.07878 18.4027 5.88965 17.6689 5.88965H11.3115C11.0654 5.88965 10.8581 5.85775 10.6895 5.79395C10.5208 5.73014 10.3408 5.62305 10.1494 5.47266L9.75977 5.15137C9.60026 5.01921 9.44759 4.91667 9.30176 4.84375C9.15592 4.76628 8.99642 4.71159 8.82324 4.67969C8.65007 4.64779 8.44499 4.63184 8.20801 4.63184H6.27344C5.63542 4.63184 5.13639 4.81641 4.77637 5.18555C4.4209 5.55013 4.24316 6.09245 4.24316 6.8125V8.71973Z" fill="#12A33A" fill-opacity="0.7"/>
</svg>
