<svg width="53" height="53" viewBox="0 0 53 53" fill="none" xmlns="http://www.w3.org/2000/svg">
<path d="M41.24 26.86C41.24 25.8067 41.1476 24.8067 40.9892 23.8333H26.0765V29.8467H34.615C34.2323 31.82 33.1106 33.4867 31.4477 34.62V38.62H36.5418C39.5244 35.8333 41.24 31.7267 41.24 26.86Z" fill="#4285F4"/>
<path d="M26.0765 42.5C30.3524 42.5 33.9288 41.06 36.5418 38.62L31.4477 34.62C30.0225 35.58 28.2144 36.1667 26.0765 36.1667C21.9458 36.1667 18.4486 33.3533 17.1949 29.5533H11.9424V33.6733C14.5422 38.9 19.8871 42.5 26.0765 42.5Z" fill="#34A853"/>
<path d="M17.1949 29.5533C16.8649 28.5933 16.6934 27.5667 16.6934 26.5C16.6934 25.4333 16.8781 24.4067 17.1949 23.4467V19.3267H11.9424C10.8603 21.4867 10.24 23.9133 10.24 26.5C10.24 29.0867 10.8603 31.5133 11.9424 33.6733L17.1949 29.5533Z" fill="#FBBC05"/>
<path d="M26.0765 16.8333C28.4124 16.8333 30.4975 17.6467 32.1472 19.2333L36.6606 14.6733C33.9288 12.0867 30.3524 10.5 26.0765 10.5C19.8871 10.5 14.5422 14.1 11.9424 19.3267L17.1949 23.4467C18.4486 19.6467 21.9458 16.8333 26.0765 16.8333Z" fill="#EA4335"/>
</svg>
