<svg width="18" height="16" viewBox="0 0 18 16" fill="none" xmlns="http://www.w3.org/2000/svg">
<path d="M8.40625 15.125C8.70833 15.125 8.95833 15.026 9.15625 14.8281C9.35417 14.6302 9.45312 14.3828 9.45312 14.0859V11.2656H9.64844C10.6068 11.2656 11.4479 11.3672 12.1719 11.5703C12.8958 11.7734 13.5286 12.1042 14.0703 12.5625C14.6172 13.0208 15.0964 13.6354 15.5078 14.4062C15.6641 14.6875 15.8333 14.8724 16.0156 14.9609C16.2031 15.0495 16.3984 15.0938 16.6016 15.0938C16.8724 15.0938 17.099 14.9688 17.2812 14.7188C17.4688 14.474 17.5625 14.1094 17.5625 13.625C17.5625 12.2083 17.4036 10.9375 17.0859 9.8125C16.7682 8.68229 16.2839 7.71875 15.6328 6.92188C14.987 6.125 14.1667 5.51823 13.1719 5.10156C12.1771 4.67969 11.0026 4.46875 9.64844 4.46875H9.45312V1.67188C9.45312 1.375 9.35417 1.1224 9.15625 0.914062C8.95833 0.700521 8.70312 0.59375 8.39062 0.59375C8.18229 0.59375 7.99479 0.640625 7.82812 0.734375C7.66146 0.822917 7.46615 0.973958 7.24219 1.1875L1.05469 6.95312C0.898438 7.09375 0.789062 7.24479 0.726562 7.40625C0.664062 7.5625 0.632812 7.71354 0.632812 7.85938C0.632812 8 0.664062 8.15104 0.726562 8.3125C0.789062 8.47396 0.898438 8.625 1.05469 8.76562L7.24219 14.5781C7.44531 14.7708 7.63542 14.9089 7.8125 14.9922C7.99479 15.0807 8.19271 15.125 8.40625 15.125Z" fill="#7F7F7F"/>
</svg>
