<svg width="19" height="20" viewBox="0 0 19 20" fill="none" xmlns="http://www.w3.org/2000/svg">
<path d="M3.05469 19.1484H16.4297C17.2786 19.1484 17.9193 18.9323 18.3516 18.5C18.7839 18.0729 19 17.4427 19 16.6094V12.3828C19 11.9922 18.9688 11.6797 18.9062 11.4453C18.849 11.2109 18.7266 10.9714 18.5391 10.7266L16.0547 7.42969C15.7318 7.00781 15.4479 6.6875 15.2031 6.46875C14.9635 6.25 14.6979 6.10156 14.4062 6.02344C14.1146 5.94531 13.7318 5.90625 13.2578 5.90625H11.9141V7.19531H13.3203C13.5859 7.19531 13.8151 7.23438 14.0078 7.3125C14.2057 7.38542 14.401 7.55208 14.5938 7.8125L17.1719 11.2734C17.3021 11.4557 17.3464 11.5859 17.3047 11.6641C17.263 11.7422 17.1432 11.7812 16.9453 11.7812H12.2656C12.0365 11.7812 11.8698 11.849 11.7656 11.9844C11.6615 12.1198 11.6094 12.2708 11.6094 12.4375V12.4688C11.6094 12.776 11.5339 13.0755 11.3828 13.3672C11.2318 13.6589 11.0156 13.8984 10.7344 14.0859C10.4583 14.2734 10.1276 14.3672 9.74219 14.3672C9.36198 14.3672 9.03125 14.2734 8.75 14.0859C8.47396 13.8984 8.26042 13.6589 8.10938 13.3672C7.95833 13.0755 7.88281 12.776 7.88281 12.4688V12.4375C7.88281 12.2708 7.82812 12.1198 7.71875 11.9844C7.61458 11.849 7.44792 11.7812 7.21875 11.7812H2.5625C2.35417 11.7812 2.22917 11.7396 2.1875 11.6562C2.15104 11.5729 2.19792 11.4453 2.32812 11.2734L4.88281 7.83594C5.08594 7.57031 5.28385 7.39844 5.47656 7.32031C5.67448 7.23698 5.90625 7.19531 6.17188 7.19531H7.57812V5.90625H6.23438C5.76042 5.90625 5.375 5.94531 5.07812 6.02344C4.78646 6.10156 4.51823 6.2526 4.27344 6.47656C4.03385 6.69531 3.7526 7.02083 3.42969 7.45312L0.945312 10.7266C0.763021 10.9714 0.640625 11.2109 0.578125 11.4453C0.520833 11.6797 0.492188 11.9922 0.492188 12.3828V16.6094C0.492188 17.4479 0.708333 18.0807 1.14062 18.5078C1.57292 18.9349 2.21094 19.1484 3.05469 19.1484ZM9.74219 12.0859C9.9401 12.0859 10.112 12.0156 10.2578 11.875C10.4036 11.7344 10.4766 11.5677 10.4766 11.375V3.82812L10.4062 2.67188L10.8984 3.23438L11.9844 4.40625C12.1146 4.54688 12.2786 4.61719 12.4766 4.61719C12.6536 4.61719 12.8047 4.5599 12.9297 4.44531C13.0547 4.32552 13.1172 4.17708 13.1172 4C13.1172 3.82812 13.0495 3.67188 12.9141 3.53125L10.2969 1.00781C10.2031 0.914062 10.1094 0.848958 10.0156 0.8125C9.92708 0.776042 9.83594 0.757812 9.74219 0.757812C9.64844 0.757812 9.55729 0.776042 9.46875 0.8125C9.38021 0.848958 9.28906 0.914062 9.19531 1.00781L6.57031 3.53125C6.4349 3.67188 6.36719 3.82812 6.36719 4C6.36719 4.17708 6.42969 4.32552 6.55469 4.44531C6.67969 4.5599 6.83073 4.61719 7.00781 4.61719C7.21094 4.61719 7.375 4.54688 7.5 4.40625L8.59375 3.23438L9.07812 2.66406L9.02344 3.82812V11.375C9.02344 11.5677 9.09375 11.7344 9.23438 11.875C9.375 12.0156 9.54427 12.0859 9.74219 12.0859Z" fill="#7F7F7F"/>
</svg>
