<svg width="24" height="20" viewBox="0 0 24 20" fill="none" xmlns="http://www.w3.org/2000/svg">
<path d="M7.83594 17.1641H16.1328C16.9401 17.1641 17.5286 16.9531 17.8984 16.5312C18.2682 16.1094 18.5156 15.5 18.6406 14.7031L19.7422 7.40625H4.22656L5.33594 14.7031C5.45573 15.5052 5.70052 16.1146 6.07031 16.5312C6.44531 16.9531 7.03385 17.1641 7.83594 17.1641ZM3.86719 6.27344H20.1016C20.5495 6.27344 20.8906 6.14844 21.125 5.89844C21.3646 5.64323 21.4844 5.28906 21.4844 4.83594V4.01562C21.4844 3.5625 21.3646 3.21094 21.125 2.96094C20.8906 2.70573 20.5495 2.57812 20.1016 2.57812H3.86719C3.4401 2.57812 3.10417 2.70573 2.85938 2.96094C2.61458 3.21094 2.49219 3.5625 2.49219 4.01562V4.83594C2.49219 5.28906 2.60938 5.64323 2.84375 5.89844C3.07812 6.14844 3.41927 6.27344 3.86719 6.27344ZM9.73438 15.0078C9.54688 15.0078 9.38281 14.9375 9.24219 14.7969C9.10677 14.6562 9.03906 14.4922 9.03906 14.3047C9.03906 14.1224 9.11198 13.9609 9.25781 13.8203L11.0078 12.0469L9.25781 10.2891C9.11198 10.1432 9.03906 9.97917 9.03906 9.79688C9.03906 9.60938 9.10938 9.45052 9.25 9.32031C9.39062 9.1849 9.55208 9.11719 9.73438 9.11719C9.83333 9.11719 9.91927 9.13542 9.99219 9.17188C10.0703 9.20833 10.1458 9.25781 10.2188 9.32031L11.9922 11.0859L13.7656 9.3125C13.9219 9.17188 14.0833 9.10156 14.25 9.10156C14.4375 9.10156 14.6016 9.17188 14.7422 9.3125C14.8828 9.44792 14.9531 9.60938 14.9531 9.79688C14.9531 9.89583 14.9323 9.98177 14.8906 10.0547C14.8542 10.1276 14.8021 10.2031 14.7344 10.2812L12.9688 12.0469L14.7266 13.8125C14.7891 13.8802 14.8411 13.9531 14.8828 14.0312C14.9245 14.1094 14.9453 14.2005 14.9453 14.3047C14.9453 14.4922 14.875 14.6562 14.7344 14.7969C14.5938 14.9375 14.4323 15.0078 14.25 15.0078C14.151 15.0078 14.0599 14.987 13.9766 14.9453C13.8932 14.9036 13.8177 14.8516 13.75 14.7891L11.9922 13.0234L10.2266 14.7891C10.0859 14.9349 9.92188 15.0078 9.73438 15.0078Z" fill="#7F7F7F"/>
</svg>
