<svg width="18" height="18" viewBox="0 0 18 18" fill="none" xmlns="http://www.w3.org/2000/svg">
<path d="M8.48438 17.1562H9.91406C10.1484 17.1562 10.3464 17.0911 10.5078 16.9609C10.6693 16.8359 10.776 16.6589 10.8281 16.4297L11.2188 14.7656C11.3542 14.7188 11.4844 14.6693 11.6094 14.6172C11.7396 14.5703 11.862 14.5208 11.9766 14.4688L13.4297 15.3516C13.6224 15.4714 13.8229 15.5208 14.0312 15.5C14.2396 15.4844 14.4245 15.3958 14.5859 15.2344L15.5859 14.2422C15.7474 14.0807 15.8385 13.8932 15.8594 13.6797C15.8802 13.4609 15.8255 13.2552 15.6953 13.0625L14.8047 11.625C14.8672 11.5052 14.9219 11.3854 14.9688 11.2656C15.0156 11.1406 15.0599 11.0156 15.1016 10.8906L16.7812 10.4922C17.0052 10.4453 17.1797 10.3411 17.3047 10.1797C17.4349 10.013 17.5 9.8125 17.5 9.57812V8.17969C17.5 7.95052 17.4349 7.75521 17.3047 7.59375C17.1797 7.42708 17.0052 7.32031 16.7812 7.27344L15.1172 6.875C15.0703 6.73438 15.0208 6.60156 14.9688 6.47656C14.9167 6.35156 14.8672 6.23438 14.8203 6.125L15.7109 4.66406C15.8359 4.47135 15.8906 4.27083 15.875 4.0625C15.8594 3.85417 15.7682 3.66927 15.6016 3.50781L14.5781 2.5C14.4167 2.35417 14.237 2.26823 14.0391 2.24219C13.8464 2.21615 13.6536 2.25781 13.4609 2.36719L11.9766 3.28125C11.8672 3.22396 11.7474 3.17188 11.6172 3.125C11.4922 3.07292 11.3594 3.02344 11.2188 2.97656L10.8281 1.28906C10.776 1.0651 10.6693 0.888021 10.5078 0.757812C10.3464 0.622396 10.1484 0.554688 9.91406 0.554688H8.48438C8.25521 0.554688 8.05729 0.622396 7.89062 0.757812C7.72917 0.888021 7.6224 1.0651 7.57031 1.28906L7.17969 2.96094C7.04427 3.00781 6.91146 3.05729 6.78125 3.10938C6.65104 3.16146 6.52865 3.21615 6.41406 3.27344L4.9375 2.36719C4.74479 2.25781 4.54948 2.21615 4.35156 2.24219C4.15885 2.26302 3.97917 2.35156 3.8125 2.50781L2.80469 3.50781C2.63802 3.66927 2.54427 3.85417 2.52344 4.0625C2.50781 4.27083 2.5625 4.47135 2.6875 4.66406L3.57031 6.125C3.52344 6.23438 3.47396 6.35156 3.42188 6.47656C3.36979 6.60156 3.32292 6.73438 3.28125 6.875L1.625 7.27344C1.39583 7.32031 1.21615 7.42708 1.08594 7.59375C0.960938 7.75521 0.898438 7.95052 0.898438 8.17969V9.57812C0.898438 9.8125 0.960938 10.013 1.08594 10.1797C1.21615 10.3411 1.39583 10.4453 1.625 10.4922L3.29688 10.8906C3.33333 11.0156 3.3776 11.1406 3.42969 11.2656C3.48177 11.3854 3.53385 11.5052 3.58594 11.625L2.70312 13.0625C2.57812 13.2552 2.52604 13.4609 2.54688 13.6797C2.56771 13.8932 2.65885 14.0807 2.82031 14.2422L3.8125 15.2344C3.97396 15.3958 4.15885 15.4844 4.36719 15.5C4.57552 15.5208 4.77604 15.4714 4.96875 15.3516L6.42188 14.4688C6.53646 14.5208 6.65625 14.5703 6.78125 14.6172C6.91146 14.6693 7.04427 14.7188 7.17969 14.7656L7.57031 16.4297C7.6224 16.6589 7.72917 16.8359 7.89062 16.9609C8.05729 17.0911 8.25521 17.1562 8.48438 17.1562ZM9.20312 11.5938C8.70312 11.5938 8.24479 11.4714 7.82812 11.2266C7.41146 10.9766 7.08073 10.6432 6.83594 10.2266C6.59115 9.8099 6.46875 9.35156 6.46875 8.85156C6.46875 8.35156 6.59115 7.89583 6.83594 7.48438C7.08594 7.07292 7.41667 6.74479 7.82812 6.5C8.24479 6.25 8.70312 6.125 9.20312 6.125C9.70312 6.125 10.1589 6.25 10.5703 6.5C10.987 6.74479 11.3177 7.07292 11.5625 7.48438C11.8073 7.89583 11.9297 8.35156 11.9297 8.85156C11.9297 9.35156 11.8073 9.8099 11.5625 10.2266C11.3177 10.6432 10.987 10.9766 10.5703 11.2266C10.1589 11.4714 9.70312 11.5938 9.20312 11.5938Z" fill="#7F7F7F"/>
</svg>
