<svg width="21" height="20" viewBox="0 0 21 20" fill="none" xmlns="http://www.w3.org/2000/svg">
<path d="M6.10156 17.1641H14.6641C15.4714 17.1641 16.0885 16.9531 16.5156 16.5312C16.9427 16.1146 17.1562 15.5052 17.1562 14.7031V7.41406H3.60938V14.7031C3.60938 15.5104 3.82292 16.1224 4.25 16.5391C4.67708 16.9557 5.29427 17.1641 6.10156 17.1641ZM7.86719 10.3906C7.67969 10.3906 7.52604 10.3307 7.40625 10.2109C7.29167 10.0911 7.23438 9.9349 7.23438 9.74219V9.5C7.23438 9.30729 7.29167 9.15365 7.40625 9.03906C7.52604 8.91927 7.67969 8.85938 7.86719 8.85938H12.9062C13.0938 8.85938 13.2474 8.91927 13.3672 9.03906C13.487 9.15365 13.5469 9.30729 13.5469 9.5V9.74219C13.5469 9.9349 13.487 10.0911 13.3672 10.2109C13.2474 10.3307 13.0938 10.3906 12.9062 10.3906H7.86719ZM3.91406 6.27344H16.8594C17.3281 6.27344 17.6797 6.14323 17.9141 5.88281C18.1536 5.6224 18.2734 5.26042 18.2734 4.79688V4.05469C18.2734 3.59115 18.1536 3.22917 17.9141 2.96875C17.6797 2.70833 17.3281 2.57812 16.8594 2.57812H3.91406C3.46615 2.57812 3.11719 2.70833 2.86719 2.96875C2.61719 3.22917 2.49219 3.59115 2.49219 4.05469V4.79688C2.49219 5.26042 2.60938 5.6224 2.84375 5.88281C3.08333 6.14323 3.4401 6.27344 3.91406 6.27344Z" fill="#7F7F7F"/>
</svg>
