<svg width="22" height="16" viewBox="0 0 22 16" fill="none" xmlns="http://www.w3.org/2000/svg">
<path d="M12.6406 15.125C12.9427 15.125 13.1927 15.0234 13.3906 14.8203C13.5885 14.6224 13.6875 14.375 13.6875 14.0781V11.2656H13.8828C14.8411 11.2656 15.6823 11.3672 16.4062 11.5703C17.1302 11.7682 17.7656 12.0964 18.3125 12.5547C18.8594 13.013 19.3385 13.6276 19.75 14.3984C19.901 14.6797 20.0677 14.8646 20.25 14.9531C20.4375 15.0417 20.6328 15.0859 20.8359 15.0859C21.1068 15.0859 21.3333 14.9609 21.5156 14.7109C21.7031 14.4661 21.7969 14.1042 21.7969 13.625C21.7969 12.2031 21.638 10.9297 21.3203 9.80469C21.0026 8.67448 20.5182 7.71354 19.8672 6.92188C19.2214 6.125 18.401 5.51823 17.4062 5.10156C16.4115 4.67969 15.237 4.46875 13.8828 4.46875H13.6875V1.66406C13.6875 1.36719 13.5885 1.11458 13.3906 0.90625C13.1927 0.692708 12.9401 0.585938 12.6328 0.585938C12.4245 0.585938 12.2344 0.632812 12.0625 0.726562C11.8958 0.815104 11.7005 0.966146 11.4766 1.17969L5.28906 6.94531C5.13802 7.08073 5.02865 7.22917 4.96094 7.39062C4.89844 7.54688 4.86719 7.70052 4.86719 7.85156C4.86719 8.0026 4.90104 8.15885 4.96875 8.32031C5.03646 8.47656 5.14323 8.6224 5.28906 8.75781L11.4766 14.5703C11.6797 14.763 11.8724 14.9036 12.0547 14.9922C12.237 15.0807 12.4323 15.125 12.6406 15.125ZM8.52344 15.125C8.79427 15.125 9.02083 15.0573 9.20312 14.9219C9.39062 14.7865 9.4974 14.625 9.52344 14.4375V14.2188L4.49219 9.57812C4.24219 9.34896 4.04427 9.08594 3.89844 8.78906C3.75781 8.49219 3.6875 8.18229 3.6875 7.85938C3.6875 7.53646 3.75781 7.22917 3.89844 6.9375C4.03906 6.64062 4.23698 6.375 4.49219 6.14062L9.52344 1.53125V1.3125C9.4974 1.11979 9.39062 0.953125 9.20312 0.8125C9.01562 0.666667 8.78385 0.59375 8.50781 0.59375C8.29948 0.59375 8.11198 0.640625 7.94531 0.734375C7.77865 0.822917 7.58073 0.973958 7.35156 1.1875L1.16406 6.95312C1.01302 7.09375 0.90625 7.24479 0.84375 7.40625C0.78125 7.5625 0.75 7.71354 0.75 7.85938C0.75 8 0.78125 8.15104 0.84375 8.3125C0.90625 8.47396 1.01302 8.625 1.16406 8.76562L7.35156 14.5781C7.55469 14.7708 7.7474 14.9089 7.92969 14.9922C8.11198 15.0807 8.3099 15.125 8.52344 15.125Z" fill="#7F7F7F"/>
</svg>
