<svg width="18" height="17" viewBox="0 0 18 17" fill="none" xmlns="http://www.w3.org/2000/svg">
<path d="M8.96875 16.9297C10.0729 16.9297 11.112 16.7188 12.0859 16.2969C13.0599 15.8802 13.9193 15.2995 14.6641 14.5547C15.4089 13.8099 15.9922 12.9505 16.4141 11.9766C16.8359 11.0026 17.0469 9.96354 17.0469 8.85938C17.0469 7.75521 16.8359 6.71615 16.4141 5.74219C15.9922 4.76823 15.4089 3.91146 14.6641 3.17188C13.9193 2.42708 13.0599 1.84375 12.0859 1.42188C11.112 1 10.0703 0.789062 8.96094 0.789062C7.85677 0.789062 6.81771 1 5.84375 1.42188C4.875 1.84375 4.01823 2.42708 3.27344 3.17188C2.53385 3.91146 1.95312 4.76823 1.53125 5.74219C1.10938 6.71615 0.898438 7.75521 0.898438 8.85938C0.898438 9.96354 1.10938 11.0026 1.53125 11.9766C1.95312 12.9505 2.53385 13.8099 3.27344 14.5547C4.01823 15.2995 4.8776 15.8802 5.85156 16.2969C6.82552 16.7188 7.86458 16.9297 8.96875 16.9297ZM8.96875 15.3359C8.07292 15.3359 7.23177 15.1693 6.44531 14.8359C5.66406 14.5026 4.97656 14.0391 4.38281 13.4453C3.79427 12.8516 3.33333 12.1641 3 11.3828C2.66667 10.6016 2.5 9.76042 2.5 8.85938C2.5 7.96354 2.66667 7.125 3 6.34375C3.33333 5.55729 3.79427 4.86719 4.38281 4.27344C4.97135 3.67969 5.65625 3.21615 6.4375 2.88281C7.22396 2.54948 8.0651 2.38281 8.96094 2.38281C9.86198 2.38281 10.7031 2.54948 11.4844 2.88281C12.2656 3.21615 12.9531 3.67969 13.5469 4.27344C14.1458 4.86719 14.612 5.55729 14.9453 6.34375C15.2786 7.125 15.4453 7.96354 15.4453 8.85938C15.4453 9.76042 15.2786 10.6016 14.9453 11.3828C14.612 12.1641 14.1484 12.8516 13.5547 13.4453C12.9661 14.0391 12.2786 14.5026 11.4922 14.8359C10.7109 15.1693 9.86979 15.3359 8.96875 15.3359ZM8.79688 10.4141C9.01042 10.4141 9.17969 10.3594 9.30469 10.25C9.4349 10.1406 9.50521 10.0078 9.51562 9.85156C9.52083 9.83594 9.52344 9.82031 9.52344 9.80469C9.52344 9.78385 9.52344 9.76823 9.52344 9.75781C9.53385 9.55469 9.60677 9.3776 9.74219 9.22656C9.8776 9.07552 10.0755 8.91667 10.3359 8.75C10.7161 8.49479 11.0208 8.23438 11.25 7.96875C11.4844 7.70312 11.6016 7.34115 11.6016 6.88281C11.6016 6.45052 11.4844 6.08333 11.25 5.78125C11.0156 5.47917 10.7031 5.2474 10.3125 5.08594C9.92708 4.92448 9.50521 4.84375 9.04688 4.84375C8.375 4.84375 7.82031 4.97656 7.38281 5.24219C6.95052 5.50781 6.67448 5.82292 6.55469 6.1875C6.52865 6.25521 6.50781 6.32292 6.49219 6.39062C6.48177 6.45312 6.47656 6.52083 6.47656 6.59375C6.47656 6.78125 6.53906 6.92969 6.66406 7.03906C6.78906 7.14844 6.93229 7.20312 7.09375 7.20312C7.23438 7.20312 7.35417 7.17448 7.45312 7.11719C7.55729 7.0599 7.64583 6.98177 7.71875 6.88281L7.84375 6.71875C7.93229 6.57812 8.03125 6.46094 8.14062 6.36719C8.25521 6.26823 8.3776 6.19271 8.50781 6.14062C8.64323 6.08854 8.78906 6.0625 8.94531 6.0625C9.26302 6.0625 9.51823 6.14844 9.71094 6.32031C9.90885 6.48698 10.0078 6.70312 10.0078 6.96875C10.0078 7.21354 9.92448 7.41667 9.75781 7.57812C9.59635 7.73958 9.34896 7.9349 9.01562 8.16406C8.73438 8.35677 8.5026 8.5651 8.32031 8.78906C8.14323 9.01302 8.05469 9.30469 8.05469 9.66406C8.05469 9.67448 8.05469 9.6875 8.05469 9.70312C8.05469 9.71875 8.05469 9.73438 8.05469 9.75C8.05469 10.1927 8.30208 10.4141 8.79688 10.4141ZM8.78125 12.8125C9.03646 12.8125 9.2526 12.7318 9.42969 12.5703C9.60677 12.4089 9.69531 12.2031 9.69531 11.9531C9.69531 11.7031 9.60677 11.4974 9.42969 11.3359C9.2526 11.1745 9.03646 11.0938 8.78125 11.0938C8.52604 11.0938 8.3099 11.1771 8.13281 11.3438C7.95573 11.5052 7.86719 11.7083 7.86719 11.9531C7.86719 12.1979 7.95573 12.4036 8.13281 12.5703C8.3151 12.7318 8.53125 12.8125 8.78125 12.8125Z" fill="#7F7F7F"/>
</svg>
