<svg width="21" height="20" viewBox="0 0 21 20" fill="none" xmlns="http://www.w3.org/2000/svg">
<path d="M11.5156 17.125C11.7188 17.125 11.9115 17.0807 12.0938 16.9922C12.2812 16.9089 12.4766 16.7708 12.6797 16.5781L18.8672 10.7656C19.0182 10.625 19.125 10.474 19.1875 10.3125C19.2552 10.151 19.2891 10 19.2891 9.85938C19.2891 9.71354 19.2552 9.5625 19.1875 9.40625C19.125 9.24479 19.0182 9.09375 18.8672 8.95312L12.6797 3.1875C12.4557 2.97396 12.2578 2.82292 12.0859 2.73438C11.9193 2.64062 11.7318 2.59375 11.5234 2.59375C11.2161 2.59375 10.9609 2.70052 10.7578 2.91406C10.5599 3.1224 10.4609 3.375 10.4609 3.67188V6.46875H10.2656C8.91146 6.46875 7.73698 6.67969 6.74219 7.10156C5.7526 7.51823 4.93229 8.125 4.28125 8.92188C3.63542 9.71875 3.15365 10.6823 2.83594 11.8125C2.51823 12.9375 2.35938 14.2083 2.35938 15.625C2.35938 16.1094 2.45052 16.474 2.63281 16.7188C2.82031 16.9688 3.04948 17.0938 3.32031 17.0938C3.52344 17.0938 3.71615 17.0495 3.89844 16.9609C4.08594 16.8724 4.25521 16.6875 4.40625 16.4062C4.81771 15.6354 5.29688 15.0208 5.84375 14.5625C6.39062 14.1042 7.02604 13.7734 7.75 13.5703C8.47396 13.3672 9.3125 13.2656 10.2656 13.2656H10.4609V16.0859C10.4609 16.3828 10.5599 16.6302 10.7578 16.8281C10.9609 17.026 11.2135 17.125 11.5156 17.125Z" fill="#7F7F7F"/>
</svg>
