<svg width="19" height="20" viewBox="0 0 19 20" fill="none" xmlns="http://www.w3.org/2000/svg">
<path d="M5.70312 17.6953H13.1016C13.6328 17.6953 14.0469 17.5547 14.3438 17.2734C14.6458 16.9974 14.8099 16.5964 14.8359 16.0703L15.3281 4.77344H16.4141C16.6068 4.77344 16.7708 4.70573 16.9062 4.57031C17.0417 4.4349 17.1094 4.27083 17.1094 4.07812C17.1094 3.88542 17.0417 3.72396 16.9062 3.59375C16.7708 3.46354 16.6068 3.39844 16.4141 3.39844H2.39062C2.19792 3.39844 2.03385 3.46615 1.89844 3.60156C1.76302 3.73177 1.69531 3.89062 1.69531 4.07812C1.69531 4.27083 1.76302 4.4349 1.89844 4.57031C2.03385 4.70573 2.19792 4.77344 2.39062 4.77344H3.48438L3.97656 16.0703C4.0026 16.5964 4.16406 16.9974 4.46094 17.2734C4.75781 17.5547 5.17188 17.6953 5.70312 17.6953ZM6.89844 15.3047C6.7474 15.3047 6.61979 15.2604 6.51562 15.1719C6.41667 15.0781 6.36719 14.9531 6.36719 14.7969L6.125 6.48438C6.125 6.32812 6.17188 6.20312 6.26562 6.10938C6.36458 6.01562 6.4974 5.96875 6.66406 5.96875C6.8151 5.96875 6.9401 6.01562 7.03906 6.10938C7.14323 6.20312 7.19792 6.32552 7.20312 6.47656L7.4375 14.7891C7.44271 14.9453 7.39583 15.0703 7.29688 15.1641C7.19792 15.2578 7.0651 15.3047 6.89844 15.3047ZM9.40625 15.3047C9.23958 15.3047 9.10417 15.2578 9 15.1641C8.90104 15.0703 8.85156 14.9479 8.85156 14.7969V6.47656C8.85156 6.32552 8.90104 6.20312 9 6.10938C9.10417 6.01562 9.23958 5.96875 9.40625 5.96875C9.56771 5.96875 9.69792 6.01562 9.79688 6.10938C9.90104 6.20312 9.95312 6.32552 9.95312 6.47656V14.7969C9.95312 14.9479 9.90104 15.0703 9.79688 15.1641C9.69792 15.2578 9.56771 15.3047 9.40625 15.3047ZM11.9062 15.3047C11.7396 15.3047 11.6068 15.2578 11.5078 15.1641C11.4089 15.0703 11.362 14.9453 11.3672 14.7891L11.6016 6.47656C11.6068 6.32552 11.6589 6.20312 11.7578 6.10938C11.862 6.01562 11.9896 5.96875 12.1406 5.96875C12.3073 5.96875 12.4375 6.01562 12.5312 6.10938C12.6302 6.20312 12.6797 6.32812 12.6797 6.48438L12.4375 14.7969C12.4375 14.9531 12.3854 15.0781 12.2812 15.1719C12.1823 15.2604 12.0573 15.3047 11.9062 15.3047ZM5.77344 3.67188H7.38281V2.29688C7.38281 2.11979 7.4375 1.97917 7.54688 1.875C7.66146 1.76562 7.81771 1.71094 8.01562 1.71094H10.7812C10.9792 1.71094 11.1328 1.76562 11.2422 1.875C11.3568 1.97917 11.4141 2.11979 11.4141 2.29688V3.67188H13.0234V2.22656C13.0234 1.60677 12.8333 1.1224 12.4531 0.773438C12.0729 0.419271 11.5469 0.242188 10.875 0.242188H7.91406C7.24219 0.242188 6.71615 0.419271 6.33594 0.773438C5.96094 1.1224 5.77344 1.60677 5.77344 2.22656V3.67188Z" fill="#7F7F7F"/>
</svg>
