<svg width="25" height="24" viewBox="0 0 25 24" fill="none" xmlns="http://www.w3.org/2000/svg">
<path d="M7.43837 17H17.5557C18.1979 17 18.6825 16.8434 19.0095 16.5301C19.3365 16.2168 19.5 15.7526 19.5 15.1375V11.9341C19.5 11.724 19.4862 11.5463 19.4586 11.4011C19.435 11.256 19.3936 11.1261 19.3345 11.0115C19.2794 10.8968 19.2025 10.7746 19.1041 10.6447L17.1598 8.12894C16.9313 7.83095 16.7244 7.60172 16.5393 7.44126C16.3541 7.27698 16.1472 7.16237 15.9187 7.09742C15.6902 7.03247 15.3987 7 15.0441 7H9.95589C9.59737 7 9.30386 7.03247 9.07535 7.09742C8.85078 7.16237 8.64591 7.27698 8.46074 7.44126C8.27557 7.60172 8.06874 7.83095 7.84023 8.12894L5.89595 10.6447C5.79745 10.7746 5.71866 10.8968 5.65956 11.0115C5.60046 11.1261 5.5591 11.256 5.53546 11.4011C5.51182 11.5463 5.5 11.724 5.5 11.9341V15.1375C5.5 15.7526 5.6635 16.2168 5.9905 16.5301C6.3175 16.8434 6.80013 17 7.43837 17ZM12.497 13.4928C12.2016 13.4928 11.9435 13.426 11.7229 13.2923C11.5062 13.1547 11.3388 12.979 11.2206 12.765C11.1024 12.5473 11.0433 12.3181 11.0433 12.0774V12.0372C11.0433 11.9074 11.0019 11.7908 10.9192 11.6877C10.8364 11.5807 10.7104 11.5272 10.5409 11.5272H6.9656C6.85922 11.5272 6.79422 11.4928 6.77058 11.4241C6.74694 11.3553 6.7627 11.2846 6.81786 11.212L8.96897 8.40401C9.09899 8.23591 9.24279 8.11748 9.40038 8.04871C9.56191 7.97612 9.74117 7.93983 9.93816 7.93983H15.0559C15.2608 7.93983 15.442 7.97612 15.5996 8.04871C15.7572 8.11748 15.899 8.23591 16.0251 8.40401L18.1821 11.212C18.2294 11.2846 18.2412 11.3553 18.2176 11.4241C18.1979 11.4928 18.1349 11.5272 18.0285 11.5272H14.4591C14.2896 11.5272 14.1636 11.5807 14.0808 11.6877C14.002 11.7908 13.9626 11.9074 13.9626 12.0372V12.0774C13.9626 12.3181 13.9016 12.5473 13.7794 12.765C13.6612 12.979 13.4918 13.1547 13.2712 13.2923C13.0545 13.426 12.7965 13.4928 12.497 13.4928Z" fill="#F8FAFC"/>
</svg>
