<svg width="25" height="24" viewBox="0 0 25 24" fill="none" xmlns="http://www.w3.org/2000/svg">
<path d="M11.9268 12.7891C12.2048 12.7891 12.4919 12.641 12.7881 12.3447L18.7422 6.43164C18.4779 6.19466 18.0107 6.07617 17.3408 6.07617H6.31445C5.72656 6.07617 5.31413 6.18555 5.07715 6.4043L11.0654 12.3447C11.3571 12.641 11.6442 12.7891 11.9268 12.7891ZM4.42773 16.918L9.33594 12.0508L4.43457 7.21777C4.30697 7.43652 4.24316 7.79427 4.24316 8.29102V15.8516C4.24316 16.3483 4.30469 16.7038 4.42773 16.918ZM6.48535 18.0732H17.5117C18.1087 18.0732 18.5303 17.957 18.7764 17.7246L13.7793 12.7617L13.3555 13.1924C12.8906 13.639 12.4144 13.8623 11.9268 13.8623C11.4346 13.8623 10.9561 13.639 10.4912 13.1924L10.0674 12.7686L5.07715 17.7246C5.35514 17.957 5.82454 18.0732 6.48535 18.0732ZM19.4053 16.9111C19.5238 16.6924 19.583 16.3392 19.583 15.8516V8.29102C19.583 7.79883 19.5215 7.44564 19.3984 7.23145L14.5107 12.0508L19.4053 16.9111Z" fill="#F8FAFC"/>
</svg>
