<svg width="25" height="24" viewBox="0 0 25 24" fill="none" xmlns="http://www.w3.org/2000/svg">
<path d="M13.8484 19C14.104 19 14.3222 18.9031 14.5028 18.7092C14.6835 18.5197 14.8355 18.2663 14.9589 17.949L19.3149 6.54674C19.3722 6.39692 19.4163 6.25811 19.4471 6.13031C19.478 6.00252 19.4934 5.88133 19.4934 5.76676C19.4934 5.53321 19.4251 5.34813 19.2885 5.21152C19.1519 5.07051 18.9668 5 18.7332 5C18.6231 5 18.5019 5.01763 18.3697 5.05288C18.2375 5.08373 18.0965 5.12559 17.9466 5.17847L6.50472 9.56091C6.21829 9.67107 5.97812 9.81649 5.78423 9.99717C5.59474 10.1778 5.5 10.396 5.5 10.6516C5.5 10.9644 5.60576 11.1958 5.81728 11.3456C6.0288 11.491 6.2954 11.6122 6.61709 11.7092L10.0477 12.7602C10.2768 12.8307 10.4685 12.8593 10.6228 12.8461C10.777 12.8285 10.9356 12.7447 11.0987 12.5949L18.4556 5.77337C18.4997 5.73371 18.546 5.71388 18.5944 5.71388C18.6473 5.71388 18.6936 5.73151 18.7332 5.76676C18.7685 5.80201 18.7861 5.84608 18.7861 5.89896C18.7861 5.94743 18.7641 5.9937 18.72 6.03777L11.9249 13.4145C11.7839 13.5644 11.7024 13.7186 11.6804 13.8772C11.6627 14.0359 11.687 14.232 11.7531 14.4655L12.771 17.8234C12.8724 18.1627 12.998 18.4426 13.1478 18.6629C13.2976 18.8876 13.5312 19 13.8484 19Z" fill="#7F7F7F"/>
</svg>
