<svg width="25" height="24" viewBox="0 0 25 24" fill="none" xmlns="http://www.w3.org/2000/svg">
<path d="M6.84766 17.7637C7.00716 17.8913 7.18717 17.9368 7.3877 17.9004C7.58822 17.8639 7.80241 17.7637 8.03027 17.5996L11.585 14.9814L15.1465 17.5996C15.3743 17.7637 15.5885 17.8639 15.7891 17.9004C15.9896 17.9368 16.1696 17.8913 16.3291 17.7637C16.4886 17.6452 16.5843 17.4857 16.6162 17.2852C16.6527 17.0892 16.6253 16.8568 16.5342 16.5879L15.126 12.4111L18.7148 9.83398C18.9473 9.66992 19.109 9.49902 19.2002 9.32129C19.2913 9.139 19.305 8.95215 19.2412 8.76074C19.1774 8.57389 19.0566 8.4349 18.8789 8.34375C18.7012 8.24805 18.4688 8.20247 18.1816 8.20703L13.7861 8.23438L12.4463 4.03711C12.3597 3.76367 12.2435 3.55632 12.0977 3.41504C11.9564 3.26921 11.7855 3.19629 11.585 3.19629C11.389 3.19629 11.2181 3.26921 11.0723 3.41504C10.931 3.55632 10.8171 3.76367 10.7305 4.03711L9.39062 8.23438L4.99512 8.20703C4.70801 8.20247 4.47559 8.24805 4.29785 8.34375C4.12012 8.4349 3.99935 8.57389 3.93555 8.76074C3.87174 8.95215 3.88542 9.139 3.97656 9.32129C4.06771 9.49902 4.22949 9.66992 4.46191 9.83398L8.05078 12.4111L6.64258 16.5879C6.55143 16.8568 6.52181 17.0892 6.55371 17.2852C6.59017 17.4857 6.68815 17.6452 6.84766 17.7637Z" fill="#7F7F7F"/>
</svg>
