<svg width="17" height="16" viewBox="0 0 17 16" fill="none" xmlns="http://www.w3.org/2000/svg">
<path d="M4.10156 15.1641H12.6641C13.4714 15.1641 14.0885 14.9531 14.5156 14.5312C14.9427 14.1146 15.1562 13.5052 15.1562 12.7031V5.41406H1.60938V12.7031C1.60938 13.5104 1.82292 14.1224 2.25 14.5391C2.67708 14.9557 3.29427 15.1641 4.10156 15.1641ZM5.86719 8.39062C5.67969 8.39062 5.52604 8.33073 5.40625 8.21094C5.29167 8.09115 5.23438 7.9349 5.23438 7.74219V7.5C5.23438 7.30729 5.29167 7.15365 5.40625 7.03906C5.52604 6.91927 5.67969 6.85938 5.86719 6.85938H10.9062C11.0938 6.85938 11.2474 6.91927 11.3672 7.03906C11.487 7.15365 11.5469 7.30729 11.5469 7.5V7.74219C11.5469 7.9349 11.487 8.09115 11.3672 8.21094C11.2474 8.33073 11.0938 8.39062 10.9062 8.39062H5.86719ZM1.91406 4.27344H14.8594C15.3281 4.27344 15.6797 4.14323 15.9141 3.88281C16.1536 3.6224 16.2734 3.26042 16.2734 2.79688V2.05469C16.2734 1.59115 16.1536 1.22917 15.9141 0.96875C15.6797 0.708333 15.3281 0.578125 14.8594 0.578125H1.91406C1.46615 0.578125 1.11719 0.708333 0.867188 0.96875C0.617188 1.22917 0.492188 1.59115 0.492188 2.05469V2.79688C0.492188 3.26042 0.609375 3.6224 0.84375 3.88281C1.08333 4.14323 1.4401 4.27344 1.91406 4.27344Z" fill="#7F7F7F"/>
</svg>
