<svg width="17" height="18" viewBox="0 0 17 18" fill="none" xmlns="http://www.w3.org/2000/svg">
<path d="M4.70312 17.6953H12.1016C12.6328 17.6953 13.0469 17.5547 13.3438 17.2734C13.6458 16.9974 13.8099 16.5964 13.8359 16.0703L14.3281 4.77344H15.4141C15.6068 4.77344 15.7708 4.70573 15.9062 4.57031C16.0417 4.4349 16.1094 4.27083 16.1094 4.07812C16.1094 3.88542 16.0417 3.72396 15.9062 3.59375C15.7708 3.46354 15.6068 3.39844 15.4141 3.39844H1.39062C1.19792 3.39844 1.03385 3.46615 0.898438 3.60156C0.763021 3.73177 0.695312 3.89062 0.695312 4.07812C0.695312 4.27083 0.763021 4.4349 0.898438 4.57031C1.03385 4.70573 1.19792 4.77344 1.39062 4.77344H2.48438L2.97656 16.0703C3.0026 16.5964 3.16406 16.9974 3.46094 17.2734C3.75781 17.5547 4.17188 17.6953 4.70312 17.6953ZM5.89844 15.3047C5.7474 15.3047 5.61979 15.2604 5.51562 15.1719C5.41667 15.0781 5.36719 14.9531 5.36719 14.7969L5.125 6.48438C5.125 6.32812 5.17188 6.20312 5.26562 6.10938C5.36458 6.01562 5.4974 5.96875 5.66406 5.96875C5.8151 5.96875 5.9401 6.01562 6.03906 6.10938C6.14323 6.20312 6.19792 6.32552 6.20312 6.47656L6.4375 14.7891C6.44271 14.9453 6.39583 15.0703 6.29688 15.1641C6.19792 15.2578 6.0651 15.3047 5.89844 15.3047ZM8.40625 15.3047C8.23958 15.3047 8.10417 15.2578 8 15.1641C7.90104 15.0703 7.85156 14.9479 7.85156 14.7969V6.47656C7.85156 6.32552 7.90104 6.20312 8 6.10938C8.10417 6.01562 8.23958 5.96875 8.40625 5.96875C8.56771 5.96875 8.69792 6.01562 8.79688 6.10938C8.90104 6.20312 8.95312 6.32552 8.95312 6.47656V14.7969C8.95312 14.9479 8.90104 15.0703 8.79688 15.1641C8.69792 15.2578 8.56771 15.3047 8.40625 15.3047ZM10.9062 15.3047C10.7396 15.3047 10.6068 15.2578 10.5078 15.1641C10.4089 15.0703 10.362 14.9453 10.3672 14.7891L10.6016 6.47656C10.6068 6.32552 10.6589 6.20312 10.7578 6.10938C10.862 6.01562 10.9896 5.96875 11.1406 5.96875C11.3073 5.96875 11.4375 6.01562 11.5312 6.10938C11.6302 6.20312 11.6797 6.32812 11.6797 6.48438L11.4375 14.7969C11.4375 14.9531 11.3854 15.0781 11.2812 15.1719C11.1823 15.2604 11.0573 15.3047 10.9062 15.3047ZM4.77344 3.67188H6.38281V2.29688C6.38281 2.11979 6.4375 1.97917 6.54688 1.875C6.66146 1.76562 6.81771 1.71094 7.01562 1.71094H9.78125C9.97917 1.71094 10.1328 1.76562 10.2422 1.875C10.3568 1.97917 10.4141 2.11979 10.4141 2.29688V3.67188H12.0234V2.22656C12.0234 1.60677 11.8333 1.1224 11.4531 0.773438C11.0729 0.419271 10.5469 0.242188 9.875 0.242188H6.91406C6.24219 0.242188 5.71615 0.419271 5.33594 0.773438C4.96094 1.1224 4.77344 1.60677 4.77344 2.22656V3.67188Z" fill="#7F7F7F"/>
</svg>
